<svg xmlns="http://www.w3.org/2000/svg" viewBox="0 0 280.24 87.24"><g transform="translate(1.8017 0.0000) scale(0.178379)"><g transform="translate(-15.318510,502.380586) scale(0.100000,-0.100000)" fill="#3A7BD5" stroke="none"><path d="M2413 4998 c-74 -79 -26 -106 197 -112 281 -7 472 -40 730 -126 153 -51 205 -39 188 46 -8 41 -128 90 -353 144 -295 72 -716 98 -762 48z"/><path d="M2040 4961 c-343 -80 -882 -340 -906 -437 -22 -87 49 -110 143 -46 259 175 522 290 820 357 80 18 96 31 96 77 0 64 -36 76 -153 49z"/><path d="M2393 4779 c-337 -31 -713 -151 -713 -228 0 -66 46 -73 166 -27 211 81 429 125 668 133 186 7 246 42 181 106 -8 8 -12 17 -10 19 8 8 -197 6 -292 -3z"/><path d="M2920 4747 c-80 -40 -30 -106 100 -132 202 -40 457 -142 646 -257 138 -84 194 -86 194 -7 0 52 -186 170 -415 264 -49 20 -99 41 -110 46 -45 19 -357 99 -385 99 -3 0 -16 -6 -30 -13z"/><path d="M3717 4692 c-10 -10 -17 -33 -17 -50 0 -35 -3 -32 165 -141 194 -125 390 -305 532 -489 81 -106 88 -112 129 -112 171 0 -73 330 -471 638 -184 142 -301 195 -338 154z"/><path d="M2385 4544 c-169 -24 -195 -35 -195 -85 0 -50 29 -59 140 -43 149 23 410 19 555 -7 219 -40 240 -37 233 33 -7 71 -484 137 -733 102z"/><path d="M1420 4453 c-315 -185 -732 -644 -652 -716 45 -41 72 -23 177 118 116 155 312 337 490 455 113 75 128 101 85 148 -27 28 -45 28 -100 -5z"/><path d="M1870 4416 c-279 -109 -650 -364 -650 -446 0 -46 68 -67 106 -32 175 161 359 277 586 368 124 50 136 58 130 93 -11 62 -48 65 -172 17z"/><path d="M3281 4391 c-49 -49 -28 -76 109 -141 185 -88 343 -198 500 -350 87 -83 101 -90 138 -64 43 30 30 62 -65 157 -233 230 -622 458 -682 398z"/><path d="M915 4350 c-24 -9 -163 -154 -231 -240 -26 -33 -51 -60 -55 -60 -5 0 -8 -3 -7 -7 1 -5 -33 -61 -75 -125 -172 -261 -263 -482 -217 -528 49 -49 88 -20 144 110 107 245 259 475 451 678 105 111 99 216 -10 172z"/><path d="M2637 4305 c-76 -37 -27 -90 98 -104 183 -21 361 -66 485 -123 154 -71 193 -68 188 11 -2 22 -6 37 -9 35 -4 -2 -45 14 -92 36 -209 98 -596 182 -670 145z"/><path d="M2360 4303 c-271 -31 -672 -197 -672 -278 0 -58 36 -58 153 1 173 86 338 139 518 165 113 16 157 63 99 103 -22 16 -30 17 -98 9z"/><path d="M4007 4219 c-54 -32 -42 -77 43 -159 157 -151 302 -354 407 -568 71 -144 89 -161 142 -131 22 13 26 21 24 55 -4 59 -7 73 -14 68 -4 -2 -12 11 -19 30 -64 195 -472 719 -557 716 -4 0 -16 -5 -26 -11z"/><path d="M2350 4060 c-181 -34 -233 -51 -244 -82 -21 -59 19 -70 142 -39 130 33 253 44 397 38 153 -6 184 4 172 55 -13 49 -273 64 -467 28z"/><path d="M1453 3891 c-216 -187 -449 -515 -408 -577 34 -53 68 -35 130 71 98 167 203 293 373 449 54 50 63 74 36 100 -28 29 -61 19 -131 -43z"/><path d="M1895 3909 c-178 -93 -475 -343 -475 -400 0 -82 57 -64 174 55 101 101 226 195 332 249 83 42 104 76 68 111 -21 22 -30 20 -99 -15z"/><path d="M1078 3832 c-148 -61 -471 -802 -366 -841 48 -18 63 2 112 153 69 210 173 412 286 555 70 88 51 166 -32 133z"/><path d="M2190 3778 c-154 -51 -390 -186 -390 -224 0 -62 39 -67 111 -15 82 58 195 116 284 146 177 59 166 54 163 89 -4 43 -46 44 -168 4z"/><path d="M4663 3738 c-40 -20 -39 -62 5 -157 64 -140 72 -158 103 -247 61 -177 101 -369 117 -562 12 -136 60 -184 123 -121 56 56 -30 533 -150 833 -101 252 -129 288 -198 254z"/><path d="M611 3552 c-130 -183 -282 -892 -208 -966 64 -64 101 -19 111 132 13 214 76 482 156 662 66 148 64 200 -6 200 -24 0 -38 -7 -53 -28z"/><path d="M1653 3430 c-141 -153 -284 -429 -244 -469 25 -25 53 -21 68 10 6 13 33 68 58 122 49 102 87 159 173 262 94 112 43 181 -55 75z"/><path d="M1980 3409 c-79 -58 -243 -219 -224 -219 3 0 -3 -12 -14 -27 -28 -41 -32 -59 -18 -79 19 -26 57 -11 86 33 42 65 115 146 169 188 113 88 112 87 109 114 -5 41 -43 38 -108 -10z"/><path d="M1318 3373 c-107 -120 -255 -609 -199 -655 47 -37 73 -8 90 98 21 128 68 271 132 397 32 65 59 126 59 135 0 41 -54 57 -82 25z"/><path d="M3196 3358 c-17 -23 -11 -41 23 -72 11 -10 18 -23 14 -29 -3 -5 -1 -7 4 -4 21 13 123 -108 181 -213 47 -87 64 -95 102 -55 13 14 19 25 13 25 -6 0 -16 14 -24 32 -10 25 -68 116 -124 196 -16 22 -90 97 -120 120 -35 28 -50 28 -69 0z"/><path d="M2821 3309 c-12 -32 -1 -43 70 -75 33 -15 56 -31 52 -37 -3 -6 -1 -7 5 -3 11 6 54 -21 136 -87 29 -24 38 -27 55 -17 28 15 26 44 -4 68 -13 11 -21 23 -17 27 4 3 2 5 -3 3 -6 -1 -35 16 -65 39 -106 80 -215 119 -229 82z"/><path d="M3612 3218 c-17 -17 -17 -16 32 -120 54 -115 90 -228 106 -333 22 -149 112 -175 95 -28 -32 277 -164 550 -233 481z"/><path d="M243 3180 c-115 -46 -122 -1086 -7 -1138 79 -37 102 20 74 189 -39 229 -32 563 16 789 30 141 2 194 -83 160z"/><path d="M972 3168 c-85 -41 -163 -727 -91 -799 64 -64 84 -18 85 200 1 200 16 311 60 457 30 99 30 119 2 138 -26 18 -25 18 -56 4z"/><path d="M2563 3124 c-12 -31 11 -48 68 -51 30 -2 83 -14 119 -25 36 -12 70 -22 75 -23 11 -1 95 -76 134 -120 14 -16 37 -40 51 -55 38 -38 82 -208 82 -315 0 -27 -43 -148 -67 -189 -29 -49 -27 -86 5 -86 53 0 144 255 98 273 -9 3 -7 9 6 19 37 28 -11 264 -56 276 -12 3 -17 10 -14 19 18 46 -146 211 -199 201 -19 -4 -25 -1 -23 10 9 48 -262 111 -279 66z"/><path d="M1954 3055 c-4 -8 -11 -12 -17 -8 -5 3 -7 2 -4 -4 8 -13 -27 -65 -38 -56 -4 5 -5 3 -1 -4 4 -7 0 -23 -9 -36 -30 -47 -69 -175 -66 -219 2 -38 64 -19 69 20 5 34 51 153 70 182 52 77 65 107 59 124 -8 20 -56 21 -63 1z"/><path d="M3163 3054 c-6 -16 3 -38 37 -89 44 -66 110 -235 92 -235 -15 0 24 -20 40 -20 34 0 39 33 17 101 -12 35 -22 69 -23 74 -1 6 -12 29 -24 51 -11 23 -19 44 -17 48 3 3 2 4 -2 1 -4 -3 -19 15 -35 40 -30 47 -72 62 -85 29z"/><path d="M1665 3021 c-11 -9 -21 -21 -22 -26 -1 -6 -13 -45 -27 -87 -64 -189 -76 -378 -24 -372 44 5 44 6 52 107 7 106 35 225 70 297 32 65 -2 121 -49 81z"/><path d="M3503 2893 c-4 -9 2 -57 13 -107 13 -64 19 -131 19 -223 0 -142 6 -160 48 -149 52 13 41 416 -14 482 -16 19 -58 18 -66 -3z"/><path d="M3990 2870 c-12 -7 -14 -24 -10 -82 10 -153 3 -401 -14 -471 -27 -115 -19 -157 30 -157 65 0 115 346 84 586 -16 132 -36 159 -90 124z"/><path d="M1368 2858 c-71 -56 -44 -589 30 -596 46 -5 54 23 35 118 -17 89 -19 287 -4 383 16 93 -11 134 -61 95z"/><path d="M644 2819 c-24 -27 -28 -412 -6 -539 52 -291 98 -397 160 -368 36 18 35 66 -1 204 -45 168 -58 280 -58 501 0 189 -1 203 -19 213 -29 16 -55 12 -76 -11z"/><path d="M2045 2698 c-18 -81 -20 -171 -3 -201 7 -12 13 -39 13 -59 2 -68 72 -194 127 -228 16 -10 29 -20 29 -24 -1 -3 -1 -10 -1 -15 0 -15 131 -98 178 -113 23 -7 42 -17 42 -21 0 -5 6 -5 13 0 18 12 30 11 47 -3 27 -22 221 -11 263 15 19 12 44 21 56 21 12 0 39 11 59 25 20 14 40 25 45 25 18 0 108 101 105 118 -6 31 -47 26 -82 -9 -115 -118 -401 -196 -479 -131 -7 6 -24 13 -39 17 -15 4 -57 27 -95 52 -37 25 -76 45 -85 45 -10 0 -18 6 -18 15 0 9 -18 44 -40 79 -22 35 -40 67 -40 72 0 5 -10 29 -23 53 -28 54 -32 136 -13 238 24 127 -30 154 -59 29z"/><path d="M1807 2664 c-40 -40 22 -384 69 -384 35 0 40 24 19 99 -10 36 -21 116 -24 176 -6 111 -27 146 -64 109z"/><path d="M3316 2648 c-3 -13 -7 -68 -10 -123 -2 -55 -12 -121 -21 -147 -22 -63 -17 -93 15 -93 66 0 113 376 48 383 -22 3 -28 -1 -32 -20z"/><path d="M1105 2583 c-51 -50 46 -506 140 -665 50 -83 104 8 62 104 -62 140 -102 303 -114 461 -8 112 -40 148 -88 100z"/><path d="M3771 2538 c-4 -13 -11 -54 -15 -93 -10 -98 -40 -212 -82 -314 -46 -109 -49 -125 -32 -150 59 -84 219 324 206 527 -4 56 -59 78 -77 30z"/><path d="M1598 2473 c-74 -17 89 -482 164 -471 47 7 45 31 -9 140 -49 98 -84 198 -98 280 -6 39 -27 57 -57 51z"/><path d="M421 2374 c-117 -82 246 -1040 369 -974 52 28 48 55 -25 185 -116 204 -194 446 -240 737 -9 60 -58 84 -104 52z"/><path d="M3531 2347 c-17 -8 -32 -34 -50 -87 -30 -85 -76 -171 -130 -245 -52 -70 -53 -72 -41 -95 25 -46 78 -7 148 107 122 200 160 364 73 320z"/><path d="M4217 2327 c-11 -7 -26 -47 -38 -97 -45 -190 -122 -378 -212 -517 -63 -96 -63 -143 -1 -143 111 0 405 711 315 760 -26 13 -43 13 -64 -3z"/><path d="M1894 2235 c-13 -33 31 -103 137 -222 21 -22 39 -39 42 -37 2 2 12 -5 22 -16 27 -30 63 -26 71 7 5 18 2 30 -9 38 -9 7 -13 16 -9 20 4 5 2 5 -4 2 -7 -4 -34 17 -63 46 -52 54 -117 137 -107 137 3 0 -2 9 -11 20 -21 24 -61 26 -69 5z"/><path d="M3200 2196 c-19 -30 -39 -52 -44 -49 -5 3 -6 2 -3 -4 8 -13 -82 -105 -95 -97 -6 4 -8 2 -4 -4 3 -6 -5 -20 -20 -31 -32 -25 -30 -64 3 -69 62 -9 271 237 249 293 -12 33 -50 16 -86 -39z"/><path d="M934 2219 c-86 -31 138 -566 304 -726 83 -81 117 17 43 122 -110 154 -202 340 -251 505 -29 99 -47 118 -96 99z"/><path d="M1422 2168 c-43 -43 99 -299 261 -471 39 -42 80 -49 97 -18 14 27 16 23 -48 98 -96 112 -147 187 -198 290 -56 116 -78 135 -112 101z"/><path d="M3907 2059 c-9 -6 -38 -50 -62 -99 -84 -167 -201 -330 -227 -314 -4 3 -5 -1 -2 -9 6 -17 -63 -80 -78 -71 -7 4 -8 2 -4 -4 4 -6 1 -20 -6 -31 -17 -28 4 -71 35 -71 105 0 460 527 397 590 -23 23 -28 24 -53 9z"/><path d="M1822 1958 c-53 -53 254 -318 369 -318 48 0 45 61 -4 81 -57 24 -201 126 -263 188 -63 62 -81 70 -102 49z"/><path d="M2196 1934 c-12 -32 -5 -44 42 -68 137 -69 319 -93 333 -43 4 15 3 25 -1 22 -5 -3 -11 -1 -15 5 -3 5 -16 10 -28 10 -12 0 -56 9 -97 20 -41 11 -86 23 -99 25 -13 3 -41 15 -62 25 -46 24 -65 25 -73 4z"/><path d="M2910 1939 c0 -14 -103 -50 -187 -66 -115 -21 -156 -64 -83 -83 87 -23 361 88 345 140 -6 20 -75 28 -75 9z"/><path d="M3490 1825 c-73 -87 -167 -169 -274 -240 -64 -42 -79 -70 -51 -98 61 -61 511 341 456 407 -29 34 -57 19 -131 -69z"/><path d="M3200 1855 c-13 -14 -25 -23 -27 -21 -2 2 -18 -9 -35 -25 -40 -36 -133 -86 -223 -119 -64 -24 -70 -28 -73 -57 -5 -51 63 -46 181 14 15 7 33 11 39 7 7 -4 8 -3 4 4 -4 7 -1 12 6 12 8 0 23 7 33 15 11 8 53 39 94 69 85 63 96 77 81 106 -15 27 -52 25 -80 -5z"/><path d="M305 1830 c-77 -85 258 -693 520 -942 46 -43 71 -47 109 -17 46 36 35 66 -56 164 -172 185 -324 427 -423 675 -55 137 -101 174 -150 120z"/><path d="M1358 1809 c-82 -47 353 -517 479 -519 74 -1 60 69 -24 126 -123 82 -268 221 -348 333 -49 68 -72 81 -107 60z"/><path d="M833 1744 c-23 -36 81 -233 192 -366 14 -16 22 -35 18 -41 -3 -7 -3 -9 1 -5 4 3 30 -19 58 -50 143 -161 271 -267 312 -256 63 15 58 74 -11 129 -153 121 -453 494 -453 564 0 47 -89 66 -117 25z"/><path d="M4208 1663 c-8 -10 -32 -45 -53 -78 -106 -167 -266 -343 -427 -470 -91 -71 -102 -90 -78 -136 57 -105 691 530 654 655 -13 45 -68 61 -96 29z"/><path d="M2290 1656 c-65 -79 376 -155 476 -82 60 44 14 63 -158 62 -121 0 -180 5 -228 17 -79 20 -75 20 -90 3z"/><path d="M1842 1637 c-1 -7 -4 -26 -8 -42 -15 -77 511 -310 551 -245 32 52 21 61 -129 105 -109 33 -216 81 -297 135 -34 22 -68 42 -78 43 -9 1 -21 6 -27 9 -6 4 -11 2 -12 -5z"/><path d="M2970 1469 c-100 -36 -230 -59 -340 -59 -121 0 -153 -13 -148 -58 9 -82 584 2 596 86 8 53 -23 61 -108 31z"/><path d="M3735 1424 c-156 -145 -291 -239 -451 -315 -94 -46 -107 -57 -102 -96 12 -104 360 75 605 312 97 94 106 112 73 145 -31 31 -50 24 -125 -46z"/><path d="M3357 1409 c-58 -55 -324 -166 -487 -203 -83 -20 -111 -54 -74 -90 66 -67 657 176 660 271 1 18 -3 30 -7 28 -4 -3 -10 -1 -14 5 -9 15 -58 9 -78 -11z"/><path d="M1420 1403 c-42 -16 -40 -69 5 -113 19 -18 31 -38 28 -43 -3 -6 -1 -7 5 -3 6 4 40 -16 76 -44 198 -156 514 -300 559 -255 45 45 19 75 -108 125 -152 60 -308 153 -435 260 -60 50 -101 80 -110 79 -3 0 -12 -3 -20 -6z"/><path d="M1982 1278 c-19 -19 -14 -56 11 -72 135 -84 618 -164 671 -110 48 48 1 84 -110 84 -112 0 -297 33 -419 75 -109 38 -134 42 -153 23z"/><path d="M893 1258 c-37 -48 -17 -84 129 -230 233 -234 600 -475 666 -437 61 34 43 93 -41 135 -225 113 -416 261 -614 477 -64 69 -114 89 -140 55z"/><path d="M2875 979 c-137 -28 -317 -34 -469 -15 -136 16 -159 13 -171 -24 -14 -45 16 -66 112 -78 333 -44 713 3 713 87 0 56 -33 61 -185 30z"/><path d="M3880 948 c-181 -143 -426 -274 -640 -343 -118 -38 -150 -60 -150 -100 0 -77 114 -62 380 49 233 98 560 321 560 382 0 74 -65 80 -150 12z"/><path d="M1594 982 c-138 -92 455 -362 796 -362 93 0 94 101 2 115 -272 42 -447 94 -640 192 -127 64 -139 68 -158 55z"/><path d="M3437 929 c-163 -94 -548 -199 -731 -199 -77 0 -117 -52 -77 -101 57 -70 748 94 873 208 48 43 -9 124 -65 92z"/><path d="M1119 763 c-29 -7 -52 -61 -40 -91 54 -126 808 -485 987 -470 94 8 86 102 -11 131 -375 112 -593 213 -800 367 -69 52 -106 69 -136 63z"/><path d="M1900 580 c-57 -57 -21 -96 120 -133 386 -103 901 -103 900 1 -1 62 -6 63 -236 56 -247 -8 -401 8 -613 62 -157 40 -146 39 -171 14z"/><path d="M3310 389 c-205 -74 -442 -111 -725 -113 -121 -1 -226 -5 -233 -10 -25 -15 -33 -55 -17 -86 65 -127 1135 29 1135 165 0 64 -58 80 -160 44z"/></g></g><g fill="#3A7BD5" transform="translate(104.57 71.62) scale(0.04057971014492753 -0.04057971014492753)"><g transform="translate(0 0)"><path d="M1311 337Q1311 187 1184.0 93.5Q1057 0 808 0H125Q88 0 88 28Q88 52 116 59L184 72Q229 83 229 122V1284Q229 1318 184 1328L116 1341Q88 1348 88 1372Q88 1400 125 1400H642Q924 1400 1077.5 1289.0Q1231 1178 1231 999Q1231 878 1148.0 789.0Q1065 700 909 669Q1093 648 1202.0 557.5Q1311 467 1311 337ZM612 1341H523V683H690Q820 683 888.5 761.0Q957 839 957 984Q957 1145 864.0 1243.0Q771 1341 612 1341ZM698 630H523V131Q523 59 614 59H740Q873 59 945.0 137.0Q1017 215 1017 344Q1017 474 935.0 552.0Q853 630 698 630Z"/></g><g transform="translate(1362 0)"><path d="M66 203Q66 320 168.0 392.0Q270 464 468 464Q512 464 547.5 458.5Q583 453 613 443V743Q613 814 580.0 852.5Q547 891 486 891Q425 891 393.5 863.0Q362 835 362 797V712Q362 657 324.0 623.5Q286 590 222 590Q112 590 112 694Q112 751 159.0 807.5Q206 864 298.5 900.5Q391 937 527 937Q702 937 788.0 865.0Q874 793 874 667V148Q874 87 917 87Q954 87 968 126Q975 137 985 137Q1000 137 1000 116Q1000 90 979.0 57.5Q958 25 915.0 1.5Q872 -22 805 -22Q726 -22 681.0 9.0Q636 40 629 93Q577 37 501.5 7.5Q426 -22 342 -22Q219 -22 142.5 40.5Q66 103 66 203ZM331 244Q331 163 370.5 120.5Q410 78 472 78Q551 78 613 132V398Q586 408 558.0 413.5Q530 419 497 419Q418 419 374.5 373.0Q331 327 331 244Z"/></g><g transform="translate(2388 0)"><path d="M464 36Q533 36 572.0 71.0Q611 106 611 162Q611 217 571.0 256.5Q531 296 412 329Q275 364 198.5 411.0Q122 458 91.0 518.5Q60 579 60 654Q60 787 152.5 862.5Q245 938 411 938Q507 938 553.0 915.0Q599 892 620 892Q644 892 671.5 915.5Q699 939 721 939Q744 939 753 908L813 668Q826 621 800 611Q775 601 756 630Q680 770 599.5 825.5Q519 881 424 881Q343 881 301.0 844.5Q259 808 259 748Q259 691 304.0 649.5Q349 608 488 573Q666 529 738.0 451.0Q810 373 810 257Q810 131 717.5 54.5Q625 -22 482 -22Q421 -22 381.5 -8.0Q342 6 317.0 20.0Q292 34 276 34Q261 34 243.5 20.5Q226 7 209.0 -6.5Q192 -20 178 -20Q154 -20 148 15L107 231Q98 279 121 289Q143 299 166 264Q236 141 312.0 88.5Q388 36 464 36Z"/></g><g transform="translate(3276 0)"><path d="M925 558Q925 488 850 488H295Q308 316 394.5 229.5Q481 143 617 143Q712 143 780.5 188.5Q849 234 873 313Q891 335 903 335Q923 335 922 304Q917 213 863.5 139.0Q810 65 719.5 21.0Q629 -23 514 -23Q378 -23 274.5 34.5Q171 92 112.5 196.0Q54 300 54 439Q54 586 111.5 698.5Q169 811 275.0 874.5Q381 938 526 938Q650 938 739.5 889.0Q829 840 877.0 754.0Q925 668 925 558ZM493 876Q404 876 348.5 791.0Q293 706 293 542V538H628Q663 538 663 572Q663 724 615.0 800.0Q567 876 493 876Z"/></g></g></svg>
